<svg width="22" height="23" viewBox="0 0 22 23" fill="none" xmlns="http://www.w3.org/2000/svg">
<path d="M21.1462 5.29125L13.5281 12.9244C13.2337 13.2195 12.8718 13.4385 12.4738 13.5625L10.855 14.1044C10.4708 14.2129 10.0647 14.217 9.67841 14.1162C9.29213 14.0155 8.9397 13.8136 8.65742 13.5313C8.37515 13.2491 8.17325 12.8966 8.07252 12.5103C7.9718 12.1241 7.97589 11.7179 8.08438 11.3337L8.62625 9.715C8.74984 9.3171 8.96842 8.9552 9.26313 8.6606L16.8962 1.04125C16.9662 0.97136 17.0139 0.88229 17.0332 0.78531C17.0526 0.68832 17.0427 0.58778 17.0049 0.49639C16.9671 0.40501 16.9031 0.32688 16.8209 0.2719C16.7387 0.21692 16.642 0.18755 16.5431 0.1875H3.5C2.57174 0.1875 1.6815 0.55625 1.02513 1.21263C0.368749 1.869 0 2.75924 0 3.6875V18.6875C0 19.6158 0.368749 20.506 1.02513 21.1624C1.6815 21.8188 2.57174 22.1875 3.5 22.1875H18.5C19.4283 22.1875 20.3185 21.8188 20.9749 21.1624C21.6313 20.506 22 19.6158 22 18.6875V5.64437C22 5.54548 21.9706 5.44882 21.9156 5.36662C21.8606 5.28442 21.7825 5.22037 21.6911 5.18257C21.5997 5.14477 21.4992 5.13492 21.4022 5.15427C21.3052 5.17361 21.2161 5.22128 21.1462 5.29125Z" fill="#FF774C"/>
</svg>
